<svg width="94" height="92" viewBox="0 0 94 92" fill="none" xmlns="http://www.w3.org/2000/svg">
<path d="M15.1683 34.8645L1.77804 43.8038C0.239406 44.831 -0.410852 47.1888 1.24068 49.2124L35.4618 86.4247C35.4618 86.4247 22.7224 50.6825 19.3056 42.3226C18.2917 39.8132 19.899 37.7182 21.4376 36.691L42.8953 22.3659C42.8953 22.3659 34.2099 15.6596 33.2803 14.8975C31.5598 13.4009 29.9509 12.9721 28.1212 14.1936L14.3566 23.3827C12.8596 24.3821 12.0842 26.2825 12.8066 28.2651C13.5428 30.1783 15.1683 34.8645 15.1683 34.8645ZM35.4617 21.3168L18.8278 32.4215C18.8278 32.4215 17.7982 27.097 19.6695 25.8477L28.527 19.9345C30.5231 18.6019 35.4617 21.3168 35.4617 21.3168ZM40.8695 85.3396C40.8852 88.1547 39.7912 90.5683 37.7119 91.9564L103.125 48.2872C105.37 46.7881 106.09 44.444 105.104 41.9763C100.854 31.6477 88.659 2.2148 88.659 2.2148C87.562 -0.0587692 85.3849 0.0119656 84.0542 0.900344L70.6223 9.86737L66.5413 3.75442C66.0971 3.08907 63.9888 2.27224 62.3254 3.38271L46.6895 13.8211C44.5271 15.2647 44.6818 18.6483 44.6818 18.6483L45.6715 26.5244L27.3326 38.7673C26.0019 39.6557 25.2403 41.3064 25.8514 42.7621C25.8514 42.7621 37.8397 75.038 39.0481 78.0187C39.7842 79.7517 40.8817 82.7464 40.8695 85.3396ZM68.0441 11.5886L49.83 23.7482C49.83 23.7482 49.4657 17.9796 51.7529 16.4527L61.2758 10.0953C64.2283 8.12417 68.0441 11.5886 68.0441 11.5886Z" fill="white"/>
</svg>
