<svg width="31" height="30" viewBox="0 0 31 30" fill="none" xmlns="http://www.w3.org/2000/svg">
<path d="M14.4707 0.0409222C8.99126 0.421782 4.09907 3.63858 1.59849 8.496C-0.236085 12.0585 -0.490382 16.1132 0.871923 19.9042C1.18677 20.7714 1.56216 21.5683 1.7438 21.7616C2.11313 22.1425 2.68227 22.248 3.14849 22.0194C3.56626 21.8085 3.77212 21.5155 3.80239 21.0761C3.82056 20.7538 3.80239 20.6542 3.58442 20.1737C3.09399 19.1073 2.77309 18.0761 2.56118 16.9042C2.40981 16.0605 2.40981 14.0331 2.56118 13.1601C3.20903 9.45694 5.47348 6.20498 8.81567 4.20694C12.4364 2.03897 16.6504 1.76358 20.695 3.4335C21.2762 3.67373 21.3791 3.70303 21.7122 3.67959C22.0028 3.66202 22.136 3.621 22.3116 3.49209C22.7293 3.18155 22.8989 2.7128 22.7717 2.23819C22.6325 1.75186 22.2389 1.48233 20.9795 1.0253C18.8362 0.246 16.5172 -0.105562 14.4707 0.0409222Z" fill="black"/>
<path d="M29.2745 0.140625C29.1776 0.1875 22.578 6.5332 14.61 14.25C1.55005 26.9004 0.127203 28.2949 0.0848203 28.4941C-0.0665469 29.3379 0.429937 29.9707 1.24127 29.9707C1.51373 29.9707 1.65904 29.9355 1.81646 29.8418C1.9315 29.7715 8.519 23.4316 16.4446 15.75C30.7397 1.91016 30.8669 1.78711 30.9395 1.48828C31.0667 0.949219 30.8184 0.416016 30.334 0.175781C30.0555 0.0410156 29.5469 0.0234375 29.2745 0.140625Z" fill="black"/>
<path d="M28.0333 7.99811C27.7184 8.09186 27.3854 8.37897 27.2704 8.65436C27.1432 8.94147 27.1735 9.30475 27.343 9.69732C27.9667 11.1094 28.3178 12.2989 28.4813 13.5235C28.9838 17.2676 27.5731 21.1348 24.7032 23.9063C22.7475 25.793 20.3499 27.0059 17.5465 27.5215C16.7352 27.668 14.2043 27.668 13.3809 27.5215C12.2547 27.3165 11.2618 27.0235 10.1598 26.5782C9.59068 26.3497 9.28189 26.3145 8.95494 26.4493C8.18599 26.7598 7.94986 27.6856 8.49478 28.2833C8.9731 28.8106 11.3768 29.584 13.4112 29.8653C14.4708 30.0118 16.7534 29.9942 17.8311 29.836C19.8413 29.5313 21.6153 28.9219 23.3045 27.9551C27.4338 25.5879 30.2129 21.4922 30.885 16.7579C30.994 16.0254 30.994 13.8399 30.885 13.1544C30.667 11.7129 30.3098 10.4649 29.777 9.25787C29.4622 8.54303 29.226 8.19732 28.9536 8.06256C28.6932 7.93365 28.3299 7.91022 28.0333 7.99811Z" fill="black"/>
</svg>
