<svg width="24" height="22" viewBox="0 0 24 22" fill="none" xmlns="http://www.w3.org/2000/svg">
<path d="M21 0H19C17.346 0 16 1.346 16 3H8C8 1.346 6.654 0 5 0H3C1.346 0 0 1.346 0 3V5C0 6.654 1.346 8 3 8H5C5.297 8 5.583 7.956 5.854 7.875L10.371 15.555C10.134 15.984 9.999 16.476 9.999 17V19C9.999 20.654 11.345 22 12.999 22H14.999C16.653 22 17.999 20.654 17.999 19V17C17.999 15.346 16.653 14 14.999 14H12.999C12.611 14 12.241 14.075 11.9 14.209L7.478 6.689C7.807 6.207 8 5.626 8 5H16C16 6.654 17.346 8 19 8H21C22.654 8 24 6.654 24 5V3C24 1.346 22.654 0 21 0ZM3 6C2.448 6 2 5.551 2 5V3C2 2.449 2.448 2 3 2H5C5.552 2 6 2.449 6 3V5C6 5.551 5.552 6 5 6H3ZM15 16C15.552 16 16 16.448 16 17V19C16 19.552 15.552 20 15 20H13C12.448 20 12 19.552 12 19V17C12 16.448 12.448 16 13 16H15ZM22 5C22 5.551 21.552 6 21 6H19C18.448 6 18 5.551 18 5V3C18 2.449 18.448 2 19 2H21C21.552 2 22 2.449 22 3V5Z" fill="#9D9D9D"/>
</svg>
