<svg width="33" height="33" viewBox="0 0 33 33" fill="none" xmlns="http://www.w3.org/2000/svg">
<path d="M27.9883 13.3513C27.8451 13.0706 27.6463 12.8219 27.4039 12.6204C27.1616 12.419 26.8808 12.2689 26.5786 12.1794C26.2764 12.0898 25.9592 12.0627 25.6462 12.0997C25.3333 12.1366 25.0311 12.2368 24.758 12.3942L24.0992 12.7743C24.0109 12.4352 23.8437 12.1219 23.6112 11.8598C23.2969 11.5074 22.8819 11.26 22.4223 11.1511L22.6204 10.9531C23.06 10.5321 23.3213 9.9585 23.3503 9.35054C23.3794 8.74257 23.1739 8.14665 22.7764 7.68574C22.5655 7.45048 22.3087 7.26071 22.022 7.12805C21.7352 6.99538 21.4244 6.9226 21.1085 6.91416C20.7926 6.90572 20.4783 6.96179 20.1849 7.07896C19.8914 7.19612 19.6249 7.3719 19.4017 7.59557L18.2953 8.70478C18.1747 8.19629 17.8863 7.7433 17.4765 7.41897C17.0668 7.09463 16.5596 6.9179 16.037 6.91732H16.0337C15.7294 6.91673 15.428 6.97646 15.147 7.09307C14.8659 7.20968 14.6107 7.38085 14.3962 7.59667L10.6005 11.3918L10.5939 11.3984L10.1701 11.8222C10.0924 11.1374 9.77233 10.5031 9.26782 10.0336C8.93808 9.73622 8.50649 9.57721 8.06262 9.58957C7.61875 9.60193 7.19668 9.78472 6.88399 10.1L2.88918 14.0998C1.13082 15.807 0.0983825 18.1265 0.00667543 20.5756C-0.0850317 23.0247 0.771049 25.4148 2.39681 27.2488C3.07996 27.9966 3.87909 28.6294 4.76349 29.1231C4.94661 29.3184 5.14522 29.5142 5.35987 29.7062C6.83625 31.0197 8.68926 31.8342 10.6553 32.0337C12.6213 32.2332 14.6002 31.8077 16.3103 30.8176L25.5115 25.5067C26.044 25.2132 26.444 24.727 26.6292 24.1478C26.8144 23.5687 26.7708 22.9406 26.5073 22.3926C26.2936 21.969 25.9549 21.6214 25.537 21.3968L26.7137 20.718C27.248 20.4263 27.6502 19.9408 27.8374 19.3615C28.0246 18.7822 27.9826 18.1532 27.72 17.6039C27.5077 17.1826 27.1711 16.8367 26.7557 16.6131L26.9953 16.4748C27.5291 16.1801 27.9296 15.692 28.1143 15.111C28.2991 14.5299 28.254 13.9001 27.9883 13.3513ZM3.21447 26.5036C1.77977 24.8799 1.02634 22.7655 1.11094 20.6004C1.19554 18.4353 2.11164 16.3861 3.66867 14.8793L7.66569 10.8828C7.77355 10.7678 7.92184 10.6991 8.07931 10.6913C8.23679 10.6835 8.39116 10.737 8.50991 10.8408C8.68677 11.0061 8.82859 11.2053 8.92695 11.4266C9.02531 11.6478 9.0782 11.8865 9.08248 12.1286C9.08677 12.3707 9.04235 12.6112 8.95188 12.8357C8.86141 13.0603 8.72672 13.2644 8.55583 13.4359H8.55306L4.79669 17.1923C4.69295 17.2961 4.6347 17.4369 4.63476 17.5836C4.63481 17.7304 4.69316 17.8711 4.79696 17.9748C4.90077 18.0786 5.04153 18.1368 5.18829 18.1368C5.33504 18.1367 5.47576 18.0784 5.57949 17.9746L9.32923 14.2243L15.1713 8.38225C15.2835 8.26932 15.417 8.17977 15.5641 8.11881C15.7112 8.05784 15.869 8.02667 16.0282 8.02708C16.2694 8.02656 16.5052 8.0977 16.7059 8.23147C16.9066 8.36524 17.063 8.55561 17.1553 8.77841C17.2476 9.00122 17.2716 9.24643 17.2243 9.48291C17.177 9.71939 17.0605 9.93648 16.8896 10.1066L10.6398 16.3603C10.587 16.4113 10.5448 16.4723 10.5158 16.5398C10.4868 16.6073 10.4716 16.6799 10.4709 16.7534C10.4703 16.8268 10.4843 16.8997 10.5121 16.9677C10.5399 17.0357 10.581 17.0974 10.633 17.1494C10.6849 17.2013 10.7467 17.2424 10.8147 17.2702C10.8826 17.298 10.9555 17.312 11.029 17.3114C11.1024 17.3108 11.175 17.2955 11.2425 17.2665C11.31 17.2375 11.371 17.1954 11.4221 17.1425L17.6796 10.8856L20.1868 8.37838C20.3038 8.26086 20.4436 8.16849 20.5976 8.10695C20.7516 8.04541 20.9165 8.01599 21.0823 8.02049C21.2481 8.025 21.4112 8.06334 21.5616 8.13316C21.712 8.20298 21.8466 8.3028 21.9571 8.42651C22.1609 8.67845 22.2622 8.99805 22.2407 9.32142C22.2191 9.64479 22.0764 9.94813 21.8409 10.1708L20.2454 11.7663V11.7696L13.1437 18.8647C13.0909 18.9157 13.0487 18.9768 13.0197 19.0443C12.9907 19.1118 12.9755 19.1844 12.9748 19.2578C12.9742 19.3313 12.9882 19.4041 13.016 19.4721C13.0438 19.5401 13.0849 19.6019 13.1368 19.6538C13.1888 19.7058 13.2506 19.7468 13.3185 19.7746C13.3865 19.8025 13.4594 19.8165 13.5328 19.8158C13.6063 19.8152 13.6789 19.7999 13.7464 19.7709C13.8139 19.7419 13.8749 19.6998 13.926 19.647L21.0221 12.5508C21.136 12.4299 21.2749 12.3354 21.4292 12.2739C21.5834 12.2123 21.7492 12.1852 21.915 12.1945C22.0807 12.1983 22.2438 12.2362 22.3941 12.3058C22.5445 12.3754 22.679 12.4751 22.7891 12.5989C22.9074 12.7365 22.9925 12.8995 23.0379 13.0752C23.0832 13.2509 23.0877 13.4347 23.0508 13.6124C23.0406 13.6686 23.0267 13.724 23.0093 13.7784C23.0016 13.8022 22.9938 13.8254 22.985 13.8486C22.9695 13.8896 22.9529 13.9294 22.9341 13.9687C22.915 14.0066 22.8939 14.0436 22.871 14.0793C22.8555 14.1053 22.8411 14.1313 22.824 14.1562C22.779 14.2206 22.7286 14.2811 22.6735 14.3371L20.3157 16.7038L20.3123 16.7071L15.6487 21.3691C15.5958 21.4202 15.5537 21.4812 15.5247 21.5487C15.4957 21.6162 15.4805 21.6888 15.4798 21.7623C15.4792 21.8357 15.4932 21.9086 15.521 21.9765C15.5488 22.0445 15.5899 22.1063 15.6418 22.1582C15.6938 22.2102 15.7555 22.2513 15.8235 22.2791C15.8915 22.3069 15.9644 22.3209 16.0378 22.3203C16.1113 22.3196 16.1839 22.3044 16.2514 22.2754C16.3189 22.2464 16.3799 22.2042 16.4309 22.1514L21.0846 17.4971C21.0846 17.4971 21.0913 17.4938 21.094 17.491C21.2821 17.2871 21.5373 17.1577 21.8129 17.1266C22.0886 17.0955 22.3662 17.1648 22.5949 17.3218C22.6215 17.3384 22.6503 17.3505 22.6752 17.3693C22.7001 17.3881 22.7277 17.418 22.7548 17.4418C22.7917 17.472 22.827 17.5041 22.8605 17.5381C22.8629 17.5417 22.8655 17.5452 22.8682 17.5486C22.9654 17.6676 23.0404 17.803 23.0895 17.9486C23.1205 18.0511 23.1374 18.1574 23.1399 18.2645C23.1399 18.2851 23.1399 18.3056 23.1399 18.3259C23.1364 18.5436 23.0814 18.7575 22.9794 18.9499C22.9673 18.9731 22.9545 18.9964 22.9407 19.0196C22.889 19.1067 22.8276 19.1876 22.7576 19.2608C22.7515 19.2674 22.7471 19.2752 22.7404 19.2818L15.2277 26.7946C15.0617 26.9605 14.8958 27.1127 14.7209 27.2604C13.5656 28.238 12.165 28.8814 10.6706 29.1209C9.17622 29.3605 7.64476 29.1872 6.2417 28.6197C6.04033 28.5378 5.84098 28.4476 5.64367 28.3491C4.72695 27.8892 3.90333 27.2635 3.21447 26.5036ZM24.9561 24.5485L15.756 29.8594C14.6273 30.5133 13.3601 30.8915 12.0576 30.9631C10.7551 31.0347 9.45404 30.7978 8.26041 30.2716C8.94904 30.3546 9.64491 30.3585 10.3344 30.2832C10.3898 30.2777 10.4412 30.266 10.4954 30.26C10.772 30.2262 11.042 30.1831 11.3125 30.1255C11.4082 30.1056 11.5017 30.0785 11.5969 30.0553C11.8243 29.9999 12.0494 29.938 12.2724 29.865C12.3786 29.8307 12.4826 29.7919 12.5877 29.7543C12.7974 29.6774 13.0037 29.5939 13.2079 29.502C13.3135 29.4545 13.4186 29.4063 13.5232 29.3543C13.7235 29.2553 13.9193 29.1469 14.1135 29.0329C14.2125 28.9776 14.3127 28.919 14.41 28.8564C14.6097 28.7292 14.8023 28.5903 14.9931 28.4465C15.0767 28.3845 15.1624 28.327 15.2443 28.2617C15.4836 28.0692 15.7149 27.8634 15.938 27.6443C15.9629 27.6205 15.99 27.6012 16.0144 27.5768L17.8328 25.7578H17.8389C17.936 25.7578 18.0314 25.7323 18.1155 25.6837L23.8248 22.3871L23.8308 22.3821C23.9746 22.3009 24.1333 22.2498 24.2974 22.2317C24.4615 22.2136 24.6276 22.229 24.7856 22.277C24.9436 22.3249 25.0902 22.4044 25.2166 22.5106C25.343 22.6168 25.4465 22.7476 25.5209 22.8949C25.6524 23.1909 25.6674 23.5256 25.5629 23.8321C25.4584 24.1386 25.2421 24.3945 24.9572 24.5485H24.9561ZM26.1621 19.7576L23.2688 21.4283C23.2654 21.4283 23.2638 21.4339 23.2605 21.4355L20.6476 22.9458L23.5299 20.0635C23.6281 19.9634 23.7175 19.8549 23.7971 19.7393C23.8231 19.7028 23.8458 19.6663 23.8696 19.6287C23.9169 19.5535 23.9601 19.4757 23.999 19.3958C24.0239 19.3454 24.0505 19.2962 24.0715 19.2448C24.1405 19.0696 24.1904 18.8874 24.2203 18.7015C24.2292 18.6462 24.238 18.5947 24.243 18.5411C24.2502 18.4675 24.2535 18.3945 24.2535 18.3198C24.2535 18.2645 24.2496 18.2091 24.2458 18.1538C24.2458 18.1223 24.2458 18.0913 24.2419 18.0603L25.0363 17.6011C25.1796 17.5185 25.3382 17.4658 25.5025 17.4464C25.6668 17.4269 25.8333 17.441 25.9919 17.4879C26.1505 17.5348 26.298 17.6134 26.4253 17.7191C26.5526 17.8247 26.6571 17.9551 26.7325 18.1024C26.8633 18.3993 26.8774 18.7346 26.7719 19.0414C26.6664 19.3482 26.449 19.604 26.1632 19.7576H26.1621ZM26.4387 15.5144L24.4831 16.6446L23.8419 17.0147C23.7935 16.9396 23.7406 16.8673 23.6837 16.7984C23.6112 16.7196 23.5335 16.6457 23.4513 16.5771C23.4425 16.5699 23.4353 16.5605 23.4264 16.5533C23.38 16.5152 23.3291 16.4847 23.2798 16.4504C23.2306 16.4161 23.1891 16.3813 23.1404 16.352C22.9404 16.2332 22.7234 16.1455 22.497 16.092L23.4618 15.1277C23.5546 15.0308 23.6397 14.9269 23.7163 14.8168C23.7462 14.7753 23.7716 14.7338 23.8004 14.6912C23.8408 14.627 23.8762 14.5612 23.9111 14.4942C23.9739 14.3718 24.0263 14.2443 24.0676 14.1131C24.0731 14.0965 24.0803 14.081 24.0853 14.0644L25.3135 13.3552C25.4566 13.2726 25.615 13.2201 25.7791 13.2007C25.9431 13.1814 26.1094 13.1956 26.2678 13.2426C26.4262 13.2896 26.5734 13.3684 26.7003 13.4741C26.8273 13.5798 26.9314 13.7102 27.0063 13.8575C27.137 14.1543 27.1514 14.4894 27.0465 14.7963C26.9417 15.1032 26.7253 15.3595 26.4404 15.5144H26.4387Z" fill="black"/>
<path d="M27.5594 6.19235C27.6632 6.29607 27.8039 6.35433 27.9506 6.35433C28.0973 6.35433 28.2379 6.29607 28.3417 6.19235L31.9376 2.59641C31.9905 2.54538 32.0326 2.48433 32.0616 2.41684C32.0906 2.34934 32.1059 2.27675 32.1065 2.20329C32.1071 2.12984 32.0931 2.05699 32.0653 1.989C32.0375 1.92101 31.9964 1.85924 31.9445 1.8073C31.8925 1.75536 31.8308 1.71428 31.7628 1.68646C31.6948 1.65864 31.622 1.64465 31.5485 1.64528C31.475 1.64592 31.4024 1.66118 31.335 1.69018C31.2675 1.71917 31.2064 1.76132 31.1554 1.81416L27.5594 5.4101C27.4557 5.51384 27.3975 5.65453 27.3975 5.80123C27.3975 5.94792 27.4557 6.08861 27.5594 6.19235Z" fill="black"/>
<path d="M31.2612 6.15725L28.4951 7.81692C28.4315 7.85363 28.3758 7.90266 28.3313 7.96114C28.2867 8.01962 28.2543 8.08638 28.2359 8.15753C28.2175 8.22867 28.2134 8.30277 28.224 8.37551C28.2345 8.44824 28.2594 8.51814 28.2973 8.58113C28.3351 8.64412 28.3852 8.69894 28.4444 8.74238C28.5037 8.78583 28.5711 8.81703 28.6425 8.83416C28.714 8.85129 28.7882 8.85401 28.8607 8.84216C28.9332 8.83031 29.0027 8.80413 29.065 8.76514L31.8311 7.10548C31.8947 7.06877 31.9504 7.01974 31.9949 6.96126C32.0395 6.90278 32.0719 6.83601 32.0903 6.76487C32.1087 6.69372 32.1128 6.61962 32.1022 6.54689C32.0917 6.47416 32.0668 6.40426 32.0289 6.34126C31.9911 6.27827 31.941 6.22345 31.8818 6.18001C31.8225 6.13657 31.7551 6.10537 31.6837 6.08824C31.6122 6.07111 31.538 6.06839 31.4655 6.08024C31.393 6.09209 31.3235 6.11827 31.2612 6.15725Z" fill="black"/>
<path d="M25.2135 6.02282C25.2785 6.05533 25.3493 6.0747 25.4218 6.07984C25.4943 6.08498 25.5671 6.07577 25.636 6.05276C25.705 6.02974 25.7687 5.99336 25.8236 5.9457C25.8785 5.89804 25.9234 5.84002 25.9559 5.77498L27.6156 2.45565C27.6811 2.32433 27.6919 2.17234 27.6454 2.03311C27.5989 1.89388 27.499 1.77881 27.3677 1.71323C27.2364 1.64764 27.0844 1.63691 26.9452 1.68339C26.8059 1.72987 26.6909 1.82975 26.6253 1.96107L24.9656 5.2804C24.9331 5.34542 24.9137 5.4162 24.9086 5.48871C24.9035 5.56122 24.9127 5.63402 24.9357 5.70297C24.9587 5.77192 24.9951 5.83566 25.0428 5.89054C25.0904 5.94542 25.1484 5.99037 25.2135 6.02282Z" fill="black"/>
<path d="M12.2277 4.6365C12.2869 4.76927 12.396 4.87341 12.5313 4.92642C12.6667 4.97942 12.8174 4.97703 12.951 4.91975C13.0846 4.86247 13.1903 4.75492 13.2452 4.62033C13.3002 4.48575 13.2999 4.33496 13.2446 4.20056L11.5849 0.328008C11.5257 0.19524 11.4167 0.0910952 11.2813 0.0380911C11.146 -0.014913 10.9952 -0.0125176 10.8616 0.0447594C10.728 0.102036 10.6223 0.209593 10.5674 0.344174C10.5125 0.478755 10.5127 0.629547 10.5681 0.763947L12.2277 4.6365Z" fill="black"/>
<path d="M14.9497 4.97131C15.0964 4.97131 15.2371 4.91302 15.3409 4.80927C15.4446 4.70552 15.5029 4.56481 15.5029 4.41809V1.09875C15.5029 0.952031 15.4446 0.811316 15.3409 0.707567C15.2371 0.603818 15.0964 0.545532 14.9497 0.545532C14.803 0.545532 14.6623 0.603818 14.5585 0.707567C14.4548 0.811316 14.3965 0.952031 14.3965 1.09875V4.41809C14.3965 4.56481 14.4548 4.70552 14.5585 4.80927C14.6623 4.91302 14.803 4.97131 14.9497 4.97131Z" fill="black"/>
<path d="M10.0925 5.87046C10.1842 5.98505 10.3177 6.05852 10.4635 6.0747C10.6094 6.09089 10.7557 6.04846 10.8703 5.95676C10.9849 5.86506 11.0584 5.73159 11.0746 5.58572C11.0908 5.43985 11.0483 5.29352 10.9566 5.17893L8.74375 2.41282C8.65205 2.29823 8.51858 2.22476 8.37271 2.20858C8.22684 2.19239 8.08051 2.23482 7.96592 2.32652C7.85133 2.41822 7.77786 2.55169 7.76168 2.69756C7.74549 2.84343 7.78792 2.98976 7.87962 3.10435L10.0925 5.87046Z" fill="black"/>
</svg>
