<svg width="118" height="100" viewBox="0 0 118 100" fill="none" xmlns="http://www.w3.org/2000/svg">
<path d="M77.7733 79.1502V85.9414C77.7734 86.5806 77.6474 87.2135 77.4026 87.804C77.1578 88.3945 76.799 88.9311 76.3466 89.383C75.8942 89.835 75.3571 90.1935 74.766 90.438C74.1749 90.6826 73.5414 90.8084 72.9016 90.8083H27.0323C25.7403 90.8083 24.5011 90.2955 23.5875 89.3828C22.6739 88.4701 22.1606 87.2322 22.1606 85.9414V81.7386H33.6745C34.1239 84.2265 34.4901 86.2968 34.7417 87.7357C34.7911 88.0174 34.8981 88.2858 35.056 88.5243C35.214 88.7628 35.4195 88.9661 35.6597 89.1216C35.8999 89.2771 36.1697 89.3814 36.4521 89.428C36.7345 89.4746 37.0235 89.4624 37.301 89.3923L77.7741 79.1512L77.7733 79.1502Z" fill="url(#paint0_linear_322_3)"/>
<path d="M33.6733 81.7375H20.7446C19.4529 81.7373 18.214 81.2247 17.3005 80.3122C16.3869 79.3998 15.8734 78.1623 15.8729 76.8718V20.7348C15.873 19.444 16.3863 18.2061 17.2999 17.2934C18.2135 16.3807 19.4526 15.8679 20.7446 15.8679H27.065C26.6163 17.7161 26.6514 19.6487 27.1668 21.4795L21.3718 23.9988C20.872 24.2161 20.4775 24.6206 20.2731 25.1253C20.0687 25.6301 20.0707 26.1949 20.2788 26.6982C20.9142 28.2297 21.8707 30.7 22.9914 34.0926L21.3192 71.6319C21.2981 72.1179 21.6796 72.5486 22.2273 72.6502L32.3544 74.5336C32.8408 77.1523 33.2882 79.5992 33.6733 81.7375Z" fill="url(#paint1_linear_322_3)"/>
<path d="M92.2502 34.5814C90.2272 32.2081 87.7561 30.2562 84.9779 28.8371C82.1998 27.418 79.169 26.5596 76.0587 26.3107C72.9484 26.0619 69.8195 26.4276 66.8507 27.387C63.8819 28.3463 61.1313 29.8805 58.7561 31.9019C48.7646 40.4036 47.5652 55.3852 56.0739 65.3634C63.1479 73.6615 74.7097 75.8897 84.1477 71.5174C87.0696 70.1562 89.6874 68.2215 91.8454 65.8287C99.6906 57.1202 100.062 43.7424 92.2514 34.5803L92.2502 34.5814ZM84.4366 62.0244C84.1324 62.2828 83.8234 62.5272 83.5063 62.7574C80.1544 65.1969 75.9781 66.2249 71.8755 65.6204C67.7728 65.0159 64.0714 62.827 61.5673 59.5246C59.0631 56.2222 57.9562 52.07 58.4845 47.9608C59.0128 43.8515 61.1341 40.1135 64.3924 37.5505C67.6506 34.9875 71.7855 33.8041 75.9079 34.255C80.0303 34.7058 83.8111 36.7548 86.4371 39.9613C89.0631 43.1678 90.3247 47.2758 89.9506 51.4019C89.5766 55.528 87.5966 59.3427 84.4366 62.0256V62.0244Z" fill="url(#paint2_linear_322_3)"/>
<path d="M86.2248 39.7067C84.1925 37.323 81.4982 35.5949 78.4827 34.741C75.4673 33.887 72.2661 33.9456 69.284 34.9092C66.3018 35.8728 63.6727 37.6983 61.729 40.1547C59.7853 42.611 58.6144 45.5881 58.3644 48.7093C58.1143 51.8305 58.7963 54.9557 60.3241 57.6896C61.852 60.4236 64.157 62.6436 66.9477 64.0688C69.7385 65.494 72.8896 66.0605 76.0026 65.6966C79.1156 65.3327 82.0507 64.0548 84.4367 62.0244C87.6363 59.3018 89.6221 55.4209 89.9574 51.2355C90.2928 47.0501 88.9501 42.9031 86.2248 39.7067ZM81.6211 55.8855L80.0788 57.4252C79.9567 57.5472 79.8118 57.644 79.6522 57.7101C79.4927 57.7761 79.3217 57.8101 79.149 57.8101C78.9764 57.8101 78.8054 57.7761 78.6458 57.7101C78.4863 57.644 78.3414 57.5472 78.2193 57.4252L74.1609 53.3708L70.1014 57.4252C69.9794 57.5473 69.8346 57.6441 69.6751 57.7101C69.5157 57.7762 69.3448 57.8102 69.1722 57.8102C68.9996 57.8102 68.8287 57.7762 68.6692 57.7101C68.5098 57.6441 68.3649 57.5473 68.243 57.4252L66.7007 55.8855C66.5783 55.7636 66.4811 55.6188 66.4149 55.4593C66.3486 55.2998 66.3145 55.1288 66.3145 54.9561C66.3145 54.7834 66.3486 54.6124 66.4149 54.4529C66.4811 54.2934 66.5783 54.1486 66.7007 54.0267L70.759 49.9734L66.7007 45.9178C66.5784 45.7959 66.4814 45.6511 66.4152 45.4918C66.349 45.3324 66.3149 45.1615 66.3149 44.989C66.3149 44.8164 66.349 44.6455 66.4152 44.4862C66.4814 44.3268 66.5784 44.182 66.7007 44.0601L68.243 42.5193C68.3649 42.3973 68.5098 42.3005 68.6692 42.2344C68.8287 42.1684 68.9996 42.1344 69.1722 42.1344C69.3448 42.1344 69.5157 42.1684 69.6751 42.2344C69.8346 42.3005 69.9794 42.3973 70.1014 42.5193L74.1609 46.5749L78.2193 42.5193C78.3414 42.3973 78.4863 42.3005 78.6458 42.2345C78.8054 42.1684 78.9764 42.1344 79.149 42.1344C79.3217 42.1344 79.4927 42.1684 79.6522 42.2345C79.8118 42.3005 79.9567 42.3973 80.0788 42.5193L81.6211 44.0601C81.7434 44.182 81.8404 44.3268 81.9066 44.4862C81.9728 44.6455 82.0068 44.8164 82.0068 44.989C82.0068 45.1615 81.9728 45.3324 81.9066 45.4918C81.8404 45.6511 81.7434 45.7959 81.6211 45.9178L77.5627 49.9734L81.6211 54.0267C81.7435 54.1486 81.8406 54.2934 81.9069 54.4529C81.9732 54.6124 82.0073 54.7834 82.0073 54.9561C82.0073 55.1288 81.9732 55.2998 81.9069 55.4593C81.8406 55.6188 81.7435 55.7636 81.6211 55.8855Z" fill="url(#paint3_linear_322_3)"/>
<path d="M91.8442 65.8298L95.6322 70.2735L90.8069 74.3792L87.0193 69.9367C88.8015 68.7862 90.4235 67.4053 91.8431 65.8298H91.8442Z" fill="url(#paint4_linear_322_3)"/>
<path d="M95.8767 70.0752L90.5673 74.5926C89.6363 75.3847 89.5243 76.7809 90.3172 77.7111L107.883 98.3159C108.676 99.246 110.073 99.3578 111.005 98.5657L116.314 94.0483C117.245 93.2561 117.357 91.8599 116.564 90.9298L98.9982 70.325C98.2053 69.3949 96.8077 69.283 95.8767 70.0752Z" fill="url(#paint5_linear_322_3)"/>
<path d="M81.6211 55.8856L80.0788 57.4253C79.9567 57.5474 79.8118 57.6442 79.6522 57.7102C79.4927 57.7762 79.3217 57.8102 79.149 57.8102C78.9764 57.8102 78.8054 57.7762 78.6458 57.7102C78.4863 57.6442 78.3414 57.5474 78.2193 57.4253L74.1609 53.371L70.1014 57.4253C69.9794 57.5474 69.8346 57.6442 69.6751 57.7102C69.5157 57.7763 69.3448 57.8103 69.1722 57.8103C68.9996 57.8103 68.8287 57.7763 68.6692 57.7102C68.5098 57.6442 68.3649 57.5474 68.243 57.4253L66.7003 55.8856C66.5779 55.7637 66.4808 55.6189 66.4145 55.4594C66.3483 55.2999 66.3141 55.1289 66.3141 54.9562C66.3141 54.7835 66.3483 54.6125 66.4145 54.453C66.4808 54.2935 66.5779 54.1487 66.7003 54.0268L70.7587 49.9735L66.7003 45.918C66.5781 45.7961 66.4811 45.6514 66.4149 45.492C66.3487 45.3326 66.3146 45.1617 66.3146 44.9892C66.3146 44.8166 66.3487 44.6458 66.4149 44.4864C66.4811 44.327 66.5781 44.1822 66.7003 44.0603L68.2427 42.5195C68.3646 42.3975 68.5094 42.3007 68.6689 42.2347C68.8283 42.1686 68.9992 42.1346 69.1718 42.1346C69.3444 42.1346 69.5154 42.1686 69.6748 42.2347C69.8342 42.3007 69.9791 42.3975 70.101 42.5195L74.1606 46.5751L78.219 42.5195C78.341 42.3975 78.486 42.3007 78.6455 42.2347C78.805 42.1686 78.976 42.1346 79.1487 42.1346C79.3214 42.1346 79.4924 42.1686 79.6519 42.2347C79.8114 42.3007 79.9564 42.3975 80.0785 42.5195L81.6211 44.0599C81.7434 44.1818 81.8404 44.3266 81.9066 44.4859C81.9728 44.6453 82.0068 44.8162 82.0068 44.9887C82.0068 45.1613 81.9728 45.3321 81.9066 45.4915C81.8404 45.6509 81.7434 45.7957 81.6211 45.9176L77.5627 49.9732L81.6211 54.0264C81.7436 54.1484 81.8407 54.2932 81.907 54.4528C81.9733 54.6123 82.0075 54.7833 82.0075 54.956C82.0075 55.1288 81.9733 55.2998 81.907 55.4593C81.8407 55.6188 81.7436 55.7637 81.6211 55.8856Z" fill="url(#paint6_linear_322_3)"/>
<path d="M84.3606 75.7868C84.3788 76.2623 84.233 76.7297 83.9476 77.1106C83.6621 77.4916 83.2543 77.763 82.7925 77.8795L77.7734 79.1503L37.3004 89.3913C37.0228 89.4618 36.7338 89.4741 36.4512 89.4277C36.1687 89.3812 35.8988 89.277 35.6585 89.1214C35.4182 88.9659 35.2127 88.7624 35.0548 88.5238C34.897 88.2852 34.7901 88.0165 34.7411 87.7347C34.4895 86.2967 34.1232 84.2251 33.6738 81.7376C33.2888 79.5993 32.8418 77.1524 32.3549 74.5337C30.6792 65.5481 28.5212 54.5448 26.6816 47.0463C25.3967 41.8147 24.1142 37.4914 22.9918 34.094C21.8707 30.7002 20.9147 28.2295 20.2792 26.6984C20.0712 26.1951 20.0691 25.6303 20.2735 25.1256C20.4779 24.6208 20.8724 24.2163 21.3722 23.999L27.1664 21.4795C27.5949 22.9884 28.3414 24.3884 29.356 25.5854C30.3705 26.7824 31.6296 27.7488 33.0487 28.4197C34.4678 29.0907 36.0141 29.4506 37.5839 29.4755C39.1537 29.5003 40.7107 29.1895 42.1504 28.5638C43.5901 27.9382 44.8792 27.0121 45.9312 25.8478C46.9832 24.6836 47.7738 23.308 48.2499 21.8134C48.726 20.3188 48.8767 18.7397 48.6918 17.1822C48.5068 15.6246 47.9906 14.1246 47.1777 12.7827L57.4418 8.32148C57.6941 8.21209 57.9656 8.15381 58.2406 8.15002C58.5156 8.14623 58.7886 8.197 59.0438 8.29939L59.5974 15.868L59.9648 20.9042C59.9966 21.3379 60.1344 21.7572 60.3661 22.1253C60.5978 22.4934 60.9164 22.7991 61.2939 23.0156C61.6714 23.2321 62.0963 23.3527 62.5313 23.367C62.9664 23.3813 63.3983 23.2887 63.7892 23.0974L66.3157 21.8629L72.6033 18.7887L72.8046 18.9465C73.0394 19.1295 73.2322 19.3607 73.3698 19.6245C74.4778 21.81 75.4734 24.0505 76.3527 26.3374C73.2595 26.0496 70.1398 26.3701 67.17 27.2808C66.8844 27.3685 66.5989 27.462 66.3157 27.5613C63.5487 28.5283 60.9854 30.0001 58.7561 31.9017C48.7646 40.4033 47.564 55.385 56.0739 65.3631C59.438 69.3113 64.0037 72.0503 69.0731 73.1616C74.1425 74.2729 79.4366 73.6954 84.1464 71.5172C84.257 73.3713 84.322 74.7974 84.3606 75.7868Z" fill="url(#paint7_linear_322_3)"/>
<path d="M72.6033 18.7882L63.7887 23.0975C63.3977 23.2887 62.9658 23.3811 62.5307 23.3667C62.0956 23.3523 61.6707 23.2315 61.2932 23.0149C60.9157 22.7983 60.5972 22.4925 60.3655 22.1244C60.1339 21.7562 59.9961 21.3368 59.9644 20.9031L59.0438 8.29806C59.2268 8.36951 59.3982 8.46762 59.5524 8.58919L72.6039 18.7882H72.6033Z" fill="url(#paint8_linear_322_3)"/>
<path d="M32.3544 74.5336L22.2273 72.6502C21.6808 72.5485 21.2993 72.1183 21.3207 71.6319L22.9926 34.0939C23.3448 35.1554 23.7099 36.3085 24.088 37.5532C24.1628 37.7999 24.2381 38.0502 24.3138 38.3042C24.5806 39.1998 24.8525 40.139 25.1295 41.1218C25.2069 41.4012 25.2851 41.685 25.3635 41.9722C25.4442 42.2621 25.5227 42.5543 25.6022 42.849C25.7602 43.4394 25.9194 44.0426 26.0797 44.6587C26.0797 44.6599 26.0797 44.661 26.0809 44.661C26.2306 45.2409 26.3808 45.8328 26.5314 46.4369C26.5806 46.6391 26.632 46.8402 26.6812 47.0443C26.8298 47.6499 26.98 48.2773 27.1317 48.9265C27.2054 49.2386 27.2791 49.5542 27.354 49.8763C27.6255 51.0547 27.9029 52.2916 28.1801 53.5706C28.2468 53.8793 28.3143 54.1914 28.3826 54.5071C28.6388 55.6902 28.894 56.906 29.1502 58.1407C29.224 58.4926 29.2954 58.8433 29.3679 59.1987C29.6222 60.4379 29.8765 61.6935 30.1274 62.9538C30.2175 63.4086 30.3081 63.8642 30.3989 64.3204C30.4469 64.566 30.4949 64.8103 30.5441 65.0558C30.5558 65.1154 30.5662 65.1727 30.578 65.2312C30.6812 65.7608 30.7842 66.2896 30.887 66.8176C30.9327 67.0444 30.9755 67.2735 31.0205 67.5003C31.0521 67.6628 31.0825 67.8242 31.1141 67.9843C31.141 68.1246 31.1679 68.2637 31.1948 68.4017C31.2229 68.5524 31.2533 68.7021 31.2814 68.8517C31.3094 69.0014 31.3398 69.151 31.3679 69.2995C31.4522 69.7472 31.5387 70.1926 31.6222 70.6345C31.6374 70.714 31.6515 70.7923 31.6678 70.8706C31.703 71.0611 31.7404 71.2494 31.7755 71.4376C31.8087 71.6095 31.8411 71.7826 31.8727 71.9544C32.0377 72.8269 32.1992 73.6869 32.356 74.5298L32.3544 74.5336Z" fill="url(#paint9_linear_322_3)"/>
<path d="M48.7692 18.4796C48.7691 15.5634 47.6094 12.7667 45.5452 10.7047C43.481 8.64276 40.6814 7.4844 37.7624 7.48448C34.8433 7.48456 32.0438 8.64308 29.9798 10.7052C27.9157 12.7673 26.7561 15.564 26.7561 18.4802C26.7561 21.3964 27.9157 24.1932 29.9798 26.2553C32.0438 28.3174 34.8433 29.4759 37.7624 29.476C40.6814 29.4761 43.481 28.3177 45.5452 26.2557C47.6094 24.1938 48.7691 21.3971 48.7692 18.4808V18.4796Z" fill="url(#paint10_linear_322_3)"/>
<path d="M41.9046 19.5641C41.9046 21.1669 41.5446 22.4026 40.8245 23.2712C40.1045 24.1398 39.0891 24.5742 37.7784 24.5745C36.4677 24.5745 35.4347 24.1372 34.7123 23.2627C33.99 22.3882 33.6275 21.1549 33.6275 19.5637V17.3971C33.6275 15.7942 33.9875 14.5585 34.7076 13.6899C35.4276 12.8213 36.4458 12.3869 37.7619 12.3867C39.0773 12.3867 40.0965 12.8239 40.8197 13.6984C41.5428 14.5729 41.9044 15.8086 41.9045 17.4056V19.5641H41.9046ZM39.1563 17.046C39.1563 16.1937 39.0448 15.5568 38.8217 15.1353C38.7265 14.9377 38.5752 14.7725 38.3867 14.6602C38.1982 14.5479 37.9807 14.4936 37.7615 14.504C37.277 14.504 36.9446 14.6993 36.7294 15.0909C36.5141 15.4825 36.3994 16.0738 36.383 16.8667V19.8982C36.383 20.7832 36.4945 21.4309 36.7176 21.8412C36.8154 22.0355 36.9678 22.1972 37.1561 22.3064C37.3443 22.4156 37.5604 22.4677 37.7778 22.4562C37.9901 22.4681 38.2012 22.4178 38.3852 22.3115C38.5692 22.2051 38.7181 22.0473 38.8135 21.8575C39.0358 21.4589 39.1501 20.8331 39.1562 19.98V17.0475L39.1563 17.046Z" fill="url(#paint11_linear_322_3)"/>
<path opacity="0.5" d="M29.5241 41.4824C29.4429 41.4824 29.3642 41.4543 29.3014 41.4029C29.2386 41.3514 29.1956 41.2798 29.1797 41.2002C29.1639 41.1207 29.1761 41.0381 29.2144 40.9665C29.2526 40.8949 29.3146 40.8389 29.3896 40.8078L56.2832 29.635C56.3689 29.6007 56.4647 29.6016 56.5498 29.6373C56.6348 29.6731 56.7024 29.7409 56.7378 29.8261C56.7732 29.9112 56.7736 30.0069 56.7389 30.0924C56.7042 30.1778 56.6372 30.2462 56.5524 30.2826L29.6582 41.4555C29.6156 41.4734 29.5699 41.4825 29.5237 41.4824H29.5241Z" fill="#CCD2D6"/>
<path opacity="0.5" d="M36.9628 43.6814C36.8829 43.6814 36.8054 43.654 36.7431 43.604C36.6808 43.554 36.6375 43.4842 36.6203 43.4062C36.6031 43.3282 36.6131 43.2467 36.6486 43.1752C36.684 43.1036 36.7429 43.0463 36.8154 43.0127L48.3667 37.6478C48.4513 37.6085 48.548 37.6045 48.6356 37.6365C48.7231 37.6685 48.7944 37.734 48.8336 37.8185C48.8729 37.903 48.877 37.9996 48.8449 38.087C48.8129 38.1745 48.7474 38.2457 48.6628 38.2849L37.1114 43.6487C37.0653 43.6704 37.0149 43.6817 36.9639 43.6819L36.9628 43.6814Z" fill="#CCD2D6"/>
<path opacity="0.5" d="M40.3225 45.7437C40.2438 45.7436 40.1674 45.7171 40.1056 45.6685C40.0437 45.6198 40.0001 45.5518 39.9816 45.4754C39.9631 45.3989 39.9709 45.3185 40.0036 45.247C40.0364 45.1755 40.0922 45.117 40.1622 45.0811L42.9614 43.6443C43.0025 43.6226 43.0475 43.6092 43.0938 43.605C43.1401 43.6007 43.1868 43.6057 43.2312 43.6197C43.2756 43.6336 43.3167 43.6562 43.3523 43.6862C43.3878 43.7162 43.4171 43.7529 43.4383 43.7942C43.4595 43.8356 43.4723 43.8807 43.4759 43.927C43.4796 43.9733 43.4739 44.0199 43.4594 44.0641C43.4449 44.1082 43.4217 44.149 43.3912 44.1841C43.3608 44.2192 43.3237 44.248 43.282 44.2686L40.4828 45.7054C40.4333 45.731 40.3783 45.7443 40.3225 45.7439V45.7437Z" fill="#CCD2D6"/>
<path opacity="0.5" d="M40.1073 74.9532C40.0216 74.9531 39.939 74.9218 39.8749 74.8651C39.8107 74.8084 39.7695 74.7303 39.759 74.6454C39.7485 74.5605 39.7694 74.4747 39.8178 74.4041C39.8662 74.3336 39.9388 74.2831 40.0218 74.2622C43.5926 73.3726 47.1883 72.3765 50.7083 71.3044C50.7968 71.2787 50.8919 71.2888 50.973 71.3326C51.0541 71.3764 51.1147 71.4503 51.1416 71.5384C51.1685 71.6265 51.1596 71.7216 51.1169 71.8032C51.0741 71.8848 51.0009 71.9462 50.9131 71.9743C47.3814 73.0499 43.7736 74.0483 40.1917 74.9416C40.1638 74.9487 40.1351 74.9524 40.1063 74.9526L40.1073 74.9532Z" fill="#CCD2D6"/>
<path opacity="0.5" d="M41.7397 68.2648C41.6574 68.2649 41.5778 68.2361 41.5146 68.1835C41.4514 68.1309 41.4087 68.0578 41.3939 67.9769C41.3792 67.8961 41.3933 67.8126 41.4338 67.7411C41.4743 67.6696 41.5387 67.6146 41.6156 67.5856C43.572 66.848 45.5679 66.22 47.5943 65.7045C47.639 65.6932 47.6855 65.6907 47.7312 65.6973C47.7769 65.7039 47.8208 65.7194 47.8605 65.743C47.9001 65.7665 47.9348 65.7977 47.9624 65.8346C47.99 65.8715 48.0101 65.9135 48.0215 65.9582C48.0328 66.0029 48.0353 66.0494 48.0287 66.095C48.0221 66.1406 48.0065 66.1845 47.983 66.2241C47.9594 66.2638 47.9282 66.2984 47.8913 66.326C47.8543 66.3536 47.8123 66.3736 47.7675 66.385C45.7666 66.8939 43.7957 67.514 41.8641 68.2426C41.8243 68.2573 41.7823 68.2648 41.74 68.2647L41.7397 68.2648Z" fill="#CCD2D6"/>
<path d="M9.97621 19.9352H15.9397C16.1291 18.7986 16.7159 17.766 17.5957 17.0211C18.4755 16.2761 19.5913 15.8671 20.7446 15.8668H27.0682C27.5857 13.7528 28.7193 11.8397 30.3256 10.3695C31.9318 8.8994 33.9385 7.93832 36.0916 7.6079C38.2448 7.27748 40.4477 7.59258 42.4216 8.51332C44.3954 9.43407 46.0515 10.9191 47.1803 12.7804L57.4432 8.31916C57.6956 8.20981 57.9673 8.15155 58.2424 8.14776C58.5176 8.14397 58.7908 8.19472 59.0462 8.29707C59.2288 8.36826 59.3999 8.46594 59.554 8.58698L72.6056 18.786L72.8057 18.9438C73.0402 19.1271 73.2329 19.3583 73.3709 19.6218C74.4789 21.8067 75.4741 24.0469 76.3526 26.3335C78.9494 26.5729 81.4891 27.2371 83.8702 28.2994C84.2505 25.9642 85.4498 23.8404 87.2536 22.3075C89.0575 20.7746 91.3483 19.9327 93.7165 19.9323H104.414C107.059 19.9323 109.597 18.8823 111.468 17.0132C113.339 15.1441 114.39 12.6091 114.39 9.96587C114.39 7.32261 113.339 4.78761 111.468 2.91855C109.597 1.04948 107.059 -0.000552757 104.414 -0.000552757H9.97621C7.32989 -0.000552757 4.79195 1.04966 2.92071 2.91906C1.04948 4.78846 -0.00176883 7.32391 -0.00176883 9.96764C-0.00176883 12.6114 1.04948 15.1468 2.92071 17.0162C4.79195 18.8856 7.32989 19.9358 9.97621 19.9358V19.9352Z" fill="url(#paint12_linear_322_3)"/>
<path d="M93.0824 67.2822C93.6341 65.1405 94.8829 63.2428 96.6323 61.8877C98.3817 60.5326 100.532 59.797 102.746 59.7966H104.413C107.058 59.7966 109.595 58.7467 111.466 56.8778C113.337 55.009 114.388 52.4742 114.388 49.8313C114.388 47.1883 113.337 44.6536 111.466 42.7848C109.595 40.9159 107.058 39.866 104.413 39.866H95.6639C99.6847 48.3909 98.2805 58.6835 91.8431 65.829C91.712 65.9751 91.5786 66.1189 91.4451 66.2627C91.5796 66.1201 91.7143 65.9763 91.8442 65.829L93.0824 67.281V67.2822Z" fill="url(#paint13_linear_322_3)"/>
<path d="M107.412 80.1861L114.283 88.2457C114.01 86.3934 113.221 84.6553 112.005 83.2301C110.79 81.8049 109.198 80.75 107.411 80.1861H107.412Z" fill="url(#paint14_linear_322_3)"/>
<path d="M9.97621 59.7962H15.8729V39.8657H9.97621C7.33066 39.8657 4.79347 40.9156 2.92279 42.7845C1.0521 44.6533 0.0011608 47.188 0.0011608 49.831C0.0011608 52.4739 1.0521 55.0086 2.92279 56.8775C4.79347 58.7463 7.33066 59.7962 9.97621 59.7962Z" fill="url(#paint15_linear_322_3)"/>
<path d="M107.731 98.1291L90.4669 77.8806C90.0461 77.3869 89.8388 76.7465 89.8906 76.1002C89.9425 75.4538 90.2492 74.8545 90.7433 74.4341L90.8076 74.3789L87.0206 69.9367H87.0193C86.1002 70.5302 85.1407 71.0587 84.1476 71.5183C84.2576 73.3724 84.322 74.7976 84.3607 75.7878C84.3794 76.263 84.2341 76.7302 83.949 77.1111C83.6639 77.492 83.2564 77.7634 82.7948 77.8798L77.7745 79.1499V85.9411C77.7745 87.2315 77.2613 88.4691 76.348 89.3816C75.4346 90.2941 74.1958 90.8067 72.9041 90.8068H27.0311C25.7394 90.8066 24.5007 90.2938 23.5874 89.3814C22.674 88.469 22.1608 87.2315 22.1606 85.9411V81.7374H20.7446C19.9754 81.7377 19.217 81.5557 18.5318 81.2062C17.8467 80.8568 17.2543 80.3499 16.8034 79.7273H9.97732C8.66738 79.7272 7.37026 79.9849 6.16001 80.4856C4.94975 80.9864 3.85007 81.7203 2.92375 82.6456C1.99743 83.5709 1.26261 84.6694 0.761247 85.8784C0.259883 87.0874 0.00179319 88.3833 0.00171335 89.6919C0.0016335 91.0006 0.259565 92.2964 0.760782 93.5055C1.262 94.7145 1.99668 95.8132 2.92289 96.7386C3.8491 97.664 4.94869 98.3981 6.15888 98.8989C7.36907 99.3998 8.66617 99.6577 9.9761 99.6577H104.414C105.844 99.6591 107.257 99.3516 108.558 98.7564C108.24 98.6089 107.958 98.3948 107.731 98.1286L107.731 98.1291Z" fill="url(#paint16_linear_322_3)"/>
<g opacity="0.5">
<path d="M93.8688 29.2809C95.7554 29.2809 97.2848 27.753 97.2848 25.8683C97.2848 23.9836 95.7554 22.4557 93.8688 22.4557C91.9822 22.4557 90.4529 23.9836 90.4529 25.8683C90.4529 27.753 91.9822 29.2809 93.8688 29.2809Z" fill="url(#paint17_linear_322_3)"/>
<path d="M87.1844 93.8876C88.7439 93.8876 90.0081 92.6246 90.0081 91.0667C90.0081 89.5087 88.7439 88.2457 87.1844 88.2457C85.6249 88.2457 84.3607 89.5087 84.3607 91.0667C84.3607 92.6246 85.6249 93.8876 87.1844 93.8876Z" fill="url(#paint18_linear_322_3)"/>
<path d="M9.37702 51.5354C10.5972 51.5354 11.5864 50.5472 11.5864 49.3282C11.5864 48.1092 10.5972 47.121 9.37702 47.121C8.15681 47.121 7.16764 48.1092 7.16764 49.3282C7.16764 50.5472 8.15681 51.5354 9.37702 51.5354Z" fill="url(#paint19_linear_322_3)"/>
<path d="M41.8135 56.8443C43.2806 56.8443 44.47 55.6561 44.47 54.1904C44.47 52.7248 43.2806 51.5366 41.8135 51.5366C40.3464 51.5366 39.1571 52.7248 39.1571 54.1904C39.1571 55.6561 40.3464 56.8443 41.8135 56.8443Z" fill="url(#paint20_linear_322_3)"/>
<path d="M72.5062 10.434C73.1376 10.434 73.6495 9.92266 73.6495 9.29184C73.6495 8.66101 73.1376 8.14963 72.5062 8.14963C71.8748 8.14963 71.3629 8.66101 71.3629 9.29184C71.3629 9.92266 71.8748 10.434 72.5062 10.434Z" fill="url(#paint21_linear_322_3)"/>
<path d="M78.9683 18.4808C80.0677 18.4808 80.9589 17.5905 80.9589 16.4922C80.9589 15.3939 80.0677 14.5036 78.9683 14.5036C77.8689 14.5036 76.9777 15.3939 76.9777 16.4922C76.9777 17.5905 77.8689 18.4808 78.9683 18.4808Z" fill="url(#paint22_linear_322_3)"/>
<path d="M10.4818 93.274C11.0919 93.274 11.5865 92.7799 11.5865 92.1703C11.5865 91.5608 11.0919 91.0667 10.4818 91.0667C9.87163 91.0667 9.37702 91.5608 9.37702 92.1703C9.37702 92.7799 9.87163 93.274 10.4818 93.274Z" fill="url(#paint23_linear_322_3)"/>
</g>
<defs>
<linearGradient id="paint0_linear_322_3" x1="49.8561" y1="86.3899" x2="49.8879" y2="72.1888" gradientUnits="userSpaceOnUse">
<stop stop-color="#CCD2D6" stop-opacity="0.702"/>
<stop offset="1" stop-color="#CCD2D6"/>
</linearGradient>
<linearGradient id="paint1_linear_322_3" x1="6.88379" y1="52.4255" x2="46.2902" y2="51.9097" gradientUnits="userSpaceOnUse">
<stop stop-color="#CCD2D6" stop-opacity="0.251"/>
<stop offset="1" stop-color="#CCD2D6" stop-opacity="0.502"/>
</linearGradient>
<linearGradient id="paint2_linear_322_3" x1="70.2177" y1="45.7944" x2="103.02" y2="80.6732" gradientUnits="userSpaceOnUse">
<stop stop-color="#CCD2D6" stop-opacity="0.702"/>
<stop offset="1" stop-color="#CCD2D6"/>
</linearGradient>
<linearGradient id="paint3_linear_322_3" x1="71.9423" y1="47.8826" x2="98.5408" y2="73.0492" gradientUnits="userSpaceOnUse">
<stop stop-color="#CCD2D6" stop-opacity="0.251"/>
<stop offset="1" stop-color="#CCD2D6" stop-opacity="0.502"/>
</linearGradient>
<linearGradient id="paint4_linear_322_3" x1="92.2388" y1="71.4296" x2="90.4056" y2="68.7325" gradientUnits="userSpaceOnUse">
<stop stop-color="#CCD2D6" stop-opacity="0.702"/>
<stop offset="1" stop-color="#CCD2D6"/>
</linearGradient>
<linearGradient id="paint5_linear_322_3" x1="93.7787" y1="83.3174" x2="115.24" y2="69.5732" gradientUnits="userSpaceOnUse">
<stop stop-color="#CCD2D6" stop-opacity="0.502"/>
<stop offset="1" stop-color="#CCD2D6"/>
</linearGradient>
<linearGradient id="paint6_linear_322_3" x1="71.0221" y1="47.0254" x2="84.0966" y2="59.3142" gradientUnits="userSpaceOnUse">
<stop stop-color="#CCD2D6" stop-opacity="0.702"/>
<stop offset="1" stop-color="#CCD2D6"/>
</linearGradient>
<linearGradient id="paint7_linear_322_3" x1="40.8071" y1="40.1029" x2="98.6107" y2="77.5246" gradientUnits="userSpaceOnUse">
<stop stop-color="#CCD2D6" stop-opacity="0.251"/>
<stop offset="1" stop-color="#CCD2D6" stop-opacity="0.502"/>
</linearGradient>
<linearGradient id="paint8_linear_322_3" x1="59.0438" y1="15.8331" x2="72.6039" y2="15.8331" gradientUnits="userSpaceOnUse">
<stop stop-color="#CCD2D6" stop-opacity="0.702"/>
<stop offset="1" stop-color="#CCD2D6"/>
</linearGradient>
<linearGradient id="paint9_linear_322_3" x1="20.5584" y1="61.1885" x2="46.6251" y2="59.3139" gradientUnits="userSpaceOnUse">
<stop stop-color="#CCD2D6" stop-opacity="0.702"/>
<stop offset="1" stop-color="#CCD2D6"/>
</linearGradient>
<linearGradient id="paint10_linear_322_3" x1="36.1777" y1="11.399" x2="40.1107" y2="29.0378" gradientUnits="userSpaceOnUse">
<stop stop-color="#CCD2D6" stop-opacity="0.251"/>
<stop offset="1" stop-color="#CCD2D6" stop-opacity="0.502"/>
</linearGradient>
<linearGradient id="paint11_linear_322_3" x1="36.839" y1="13.4714" x2="41.8879" y2="26.0702" gradientUnits="userSpaceOnUse">
<stop stop-color="#CCD2D6" stop-opacity="0.702"/>
<stop offset="1" stop-color="#CCD2D6"/>
</linearGradient>
<linearGradient id="paint12_linear_322_3" x1="57.194" y1="22.3281" x2="57.194" y2="100.662" gradientUnits="userSpaceOnUse">
<stop stop-color="#CCD2D6" stop-opacity="0.102"/>
<stop offset="1" stop-color="#CCD2D6" stop-opacity="0.251"/>
</linearGradient>
<linearGradient id="paint13_linear_322_3" x1="102.916" y1="22.3197" x2="102.916" y2="100.675" gradientUnits="userSpaceOnUse">
<stop stop-color="#CCD2D6" stop-opacity="0.102"/>
<stop offset="1" stop-color="#CCD2D6" stop-opacity="0.251"/>
</linearGradient>
<linearGradient id="paint14_linear_322_3" x1="110.847" y1="22.3261" x2="110.847" y2="100.666" gradientUnits="userSpaceOnUse">
<stop stop-color="#CCD2D6" stop-opacity="0.102"/>
<stop offset="1" stop-color="#CCD2D6" stop-opacity="0.251"/>
</linearGradient>
<linearGradient id="paint15_linear_322_3" x1="7.93705" y1="22.3268" x2="7.93705" y2="100.674" gradientUnits="userSpaceOnUse">
<stop stop-color="#CCD2D6" stop-opacity="0.102"/>
<stop offset="1" stop-color="#CCD2D6" stop-opacity="0.251"/>
</linearGradient>
<linearGradient id="paint16_linear_322_3" x1="54.2796" y1="22.3236" x2="54.2796" y2="100.668" gradientUnits="userSpaceOnUse">
<stop stop-color="#CCD2D6" stop-opacity="0.102"/>
<stop offset="1" stop-color="#CCD2D6" stop-opacity="0.251"/>
</linearGradient>
<linearGradient id="paint17_linear_322_3" x1="93.8688" y1="20.1215" x2="93.8688" y2="88.9262" gradientUnits="userSpaceOnUse">
<stop stop-color="#CCD2D6" stop-opacity="0.702"/>
<stop offset="1" stop-color="#CCD2D6"/>
</linearGradient>
<linearGradient id="paint18_linear_322_3" x1="87.1844" y1="20.1198" x2="87.1844" y2="88.9227" gradientUnits="userSpaceOnUse">
<stop stop-color="#CCD2D6" stop-opacity="0.702"/>
<stop offset="1" stop-color="#CCD2D6"/>
</linearGradient>
<linearGradient id="paint19_linear_322_3" x1="9.37702" y1="20.1179" x2="9.37702" y2="88.9256" gradientUnits="userSpaceOnUse">
<stop stop-color="#CCD2D6" stop-opacity="0.702"/>
<stop offset="1" stop-color="#CCD2D6"/>
</linearGradient>
<linearGradient id="paint20_linear_322_3" x1="41.8135" y1="20.1203" x2="41.8135" y2="88.924" gradientUnits="userSpaceOnUse">
<stop stop-color="#CCD2D6" stop-opacity="0.702"/>
<stop offset="1" stop-color="#CCD2D6"/>
</linearGradient>
<linearGradient id="paint21_linear_322_3" x1="72.5062" y1="20.12" x2="72.5062" y2="88.9242" gradientUnits="userSpaceOnUse">
<stop stop-color="#CCD2D6" stop-opacity="0.702"/>
<stop offset="1" stop-color="#CCD2D6"/>
</linearGradient>
<linearGradient id="paint22_linear_322_3" x1="78.9683" y1="20.1195" x2="78.9683" y2="88.9267" gradientUnits="userSpaceOnUse">
<stop stop-color="#CCD2D6" stop-opacity="0.702"/>
<stop offset="1" stop-color="#CCD2D6"/>
</linearGradient>
<linearGradient id="paint23_linear_322_3" x1="10.4818" y1="20.1144" x2="10.4818" y2="88.9233" gradientUnits="userSpaceOnUse">
<stop stop-color="#CCD2D6" stop-opacity="0.702"/>
<stop offset="1" stop-color="#CCD2D6"/>
</linearGradient>
</defs>
</svg>
