<svg width="49" height="46" viewBox="0 0 49 46" fill="none" xmlns="http://www.w3.org/2000/svg">
<path d="M24.2766 30.8714C21.9663 30.8714 19.8744 29.8731 18.0596 27.9032C17.8824 27.7104 17.8948 27.4112 18.0868 27.234C18.2784 27.0576 18.578 27.0692 18.756 27.2612C20.3838 29.029 22.2414 29.9247 24.2766 29.9247C26.5788 29.9247 28.4911 28.432 29.69 27.1803C29.8711 26.9914 30.1715 26.9852 30.3596 27.1659C30.5484 27.347 30.555 27.6466 30.374 27.8355C28.4717 29.8217 26.3635 30.8714 24.2766 30.8714Z" fill="black"/>
<path d="M0.83574 45.3673C0.600627 45.3673 0.376009 45.2682 0.217847 45.0945C0.0588999 44.92 -0.0184298 44.6872 0.00372555 44.4525C0.351924 40.8166 1.0919 34.5654 2.1353 33.5499C2.58337 33.1135 7.5844 31.118 17.0064 27.6142C15.0808 25.1045 14.1772 22.2175 13.8601 21.0027C13.0845 20.2881 12.5085 18.9303 12.5046 17.7318C12.5023 16.9079 12.7615 16.1832 13.2473 15.6281C12.4611 14.2543 10.4501 10.512 12.4724 6.02622C13.9247 2.80339 15.7748 1.16855 17.9705 1.16855C19.3983 1.16855 20.5789 1.89993 21.2434 2.42724C22.3486 1.60765 24.8824 0 27.7395 0C29.9838 0 33.1346 1.03564 35.4037 5.97071C37.0573 9.5669 35.9396 13.4022 35.4628 15.0402C35.429 15.156 35.3932 15.2792 35.3629 15.3861C35.9012 16.0121 36.174 16.8698 36.1386 17.8526C36.0951 19.0592 35.5973 20.304 34.9168 20.9731C34.4443 22.8093 33.2551 25.3571 31.4877 27.5255C36.0236 29.0749 45.9886 32.5469 47.0611 33.4885C48.2172 34.5039 48.771 40.7774 48.9984 44.4269C49.0127 44.6566 48.9315 44.882 48.7738 45.0502C48.616 45.2185 48.396 45.3137 48.1656 45.3145L0.836452 45.3681H0.835286L0.83574 45.3673ZM3.28288 34.7741C2.83714 35.4783 2.17262 39.7526 1.76026 43.6947L47.2708 43.6407C46.9852 39.6757 46.4228 35.3555 45.9281 34.7107C45.1598 34.1146 37.0172 31.1603 29.7648 28.7023C29.4939 28.6102 29.2891 28.3872 29.2211 28.1097C29.1531 27.8322 29.2316 27.5396 29.4294 27.3325C31.5318 25.1376 32.9374 22.1635 33.3536 20.3289C33.3995 20.1295 33.5164 19.9523 33.6835 19.833C33.989 19.615 34.4355 18.7332 34.4697 17.7913C34.4864 17.3351 34.4095 16.711 33.9509 16.3312C33.464 15.9286 33.6128 15.4176 33.8588 14.5719C34.3197 12.9899 35.2784 9.69717 33.8856 6.66834C32.3607 3.3519 30.2933 1.6704 27.7401 1.6704C24.6125 1.6704 21.7924 4.12022 21.7644 4.1451C21.4236 4.44472 20.906 4.4179 20.5982 4.08564C20.5888 4.07514 19.4121 2.83978 17.9707 2.83978C16.1283 2.83978 14.7931 4.94569 13.9968 6.71235C12.262 10.5615 14.0819 13.7265 14.7674 14.9179C15.0107 15.3407 15.4176 16.0483 14.7468 16.5139C14.3613 16.7809 14.1752 17.1773 14.1767 17.7268C14.1795 18.6291 14.7192 19.5964 15.0752 19.84C15.2462 19.957 15.3671 20.133 15.4156 20.3347C15.6574 21.3408 16.6327 24.8252 19.0232 27.4192C19.2116 27.6244 19.2863 27.91 19.221 28.1809C19.1557 28.4517 18.9602 28.6721 18.6991 28.7692C13.2378 30.7928 4.3513 34.1667 3.28383 34.7741L3.28288 34.7741Z" fill="black"/>
<path d="M13.9379 16.5977C13.695 16.5977 13.4891 16.4127 13.4665 16.1663C13.4432 15.9063 13.6359 15.6759 13.8959 15.6525L14.6055 15.5896C14.9009 14.9192 15.7046 13.0554 16.0885 11.7668C16.8739 9.12922 16.7709 7.73334 16.7697 7.71862C16.753 7.51655 16.8673 7.32534 17.0538 7.24451C17.2411 7.16368 17.4572 7.2107 17.5936 7.36149C17.6219 7.39374 20.4907 10.5236 24.4468 9.97218C25.7817 9.78603 27.656 8.64276 29.0239 7.80877C30.5796 6.86056 31.1617 6.50691 31.5604 6.99307C33.1265 8.90349 33.7191 13.5758 33.868 15.0118L34.4552 15.0351C34.7163 15.0464 34.9199 15.2663 34.9091 15.5275C34.8986 15.7886 34.6868 15.9872 34.4171 15.9814L33.4164 15.9413C33.1774 15.9312 32.983 15.7447 32.9632 15.5069C32.959 15.4494 32.4915 9.93341 30.9715 7.78354C30.6579 7.92227 30.0346 8.30233 29.517 8.6175C28.0779 9.49499 26.1069 10.6965 24.5769 10.9099C21.3818 11.358 18.8853 9.74099 17.6786 8.73678C17.6079 9.47515 17.4291 10.5803 16.995 12.0365C16.5031 13.6878 15.4017 16.1286 15.3555 16.2316C15.2852 16.3871 15.136 16.4928 14.9661 16.5079L13.979 16.5961C13.9662 16.5969 13.9519 16.5977 13.9379 16.5977Z" fill="black"/>
<path d="M20.904 44.5717C20.8709 44.5717 20.8383 44.5679 20.8052 44.5605C20.5495 44.5064 20.3863 44.255 20.4403 43.9989L22.5801 33.9171L20.0285 29.5238C19.8971 29.2976 19.9741 29.0077 20.2002 28.8764C20.4264 28.745 20.7163 28.8224 20.8477 29.0485L23.4906 33.5996C23.5497 33.701 23.5687 33.8207 23.5446 33.9361L21.3668 44.197C21.3198 44.4197 21.1223 44.5724 20.9039 44.5724L20.904 44.5717Z" fill="black"/>
<path d="M27.6802 44.571C27.4607 44.571 27.264 44.4179 27.2174 44.1937L25.0683 33.9337C25.045 33.8222 25.0629 33.706 25.1185 33.6058L27.7699 28.8608C27.8974 28.6331 28.1846 28.5499 28.4147 28.6785C28.6432 28.806 28.7252 29.0948 28.5973 29.3233L26.0325 33.9128L28.1449 43.9996C28.1986 44.2553 28.0346 44.506 27.7785 44.56C27.7447 44.5674 27.712 44.5709 27.6802 44.5709L27.6802 44.571Z" fill="black"/>
<path d="M25.4184 34.6205H23.2122C22.9511 34.6205 22.7385 34.4087 22.7385 34.1468C22.7385 33.8849 22.9507 33.6731 23.2122 33.6731H25.4184C25.6796 33.6731 25.8921 33.8849 25.8921 34.1468C25.8918 34.4087 25.68 34.6205 25.4184 34.6205Z" fill="black"/>
<path d="M39.7595 41.8404H31.5365C31.2753 41.8404 31.0627 41.6286 31.0627 41.3667V38.3585C31.0627 38.0966 31.2749 37.8848 31.5365 37.8848H39.7595C40.0207 37.8848 40.2332 38.0966 40.2332 38.3585V41.3667C40.2328 41.6286 40.0207 41.8404 39.7595 41.8404ZM32.0098 40.8942H39.2859V38.8321H32.0098V40.8942Z" fill="black"/>
</svg>
