<svg width="27" height="27" viewBox="0 0 27 27" fill="none" xmlns="http://www.w3.org/2000/svg">
<path d="M24.2644 27H2.73571C1.22612 27 0 25.7726 0 24.2615V2.84953C0 1.27981 1.27851 0 2.84663 0H19.8618C20.3147 0 20.7399 0.175784 21.0602 0.499597L26.504 5.9489C26.8182 6.26038 27 6.69829 27 7.14852V24.2645C27 25.7726 25.7738 27 24.2643 27L24.2644 27ZM2.84668 1.23402C1.95632 1.23402 1.23237 1.95877 1.23237 2.84998V24.2619C1.23237 25.0915 1.90708 25.7669 2.73582 25.7669H24.2645C25.0933 25.7669 25.768 25.0915 25.768 24.2619V7.14591C25.768 7.02563 25.7187 6.90536 25.6386 6.82518L25.6355 6.82209L20.1918 1.36969C20.1024 1.28026 19.9884 1.234 19.8621 1.234L2.84668 1.23402Z" fill="black"/>
<path d="M26.25 7.5H22.3374C20.7742 7.5 19.5 6.22524 19.5 4.66132V0.75H20.7431V4.66132C20.7431 5.54124 21.4579 6.25634 22.3374 6.25634H26.25V7.5Z" fill="black"/>
<path d="M8.25 12C7.00906 12 6 10.991 6 9.75C6 8.50901 7.00901 7.5 8.25 7.5C9.49099 7.5 10.5 8.50901 10.5 9.75C10.5 10.991 9.49099 12 8.25 12ZM8.25 8.70486C7.67472 8.70486 7.20481 9.17473 7.20481 9.75006C7.20481 10.3254 7.67468 10.7952 8.25 10.7952C8.82528 10.7952 9.29519 10.3254 9.29519 9.75006C9.29519 9.17473 8.82532 8.70486 8.25 8.70486Z" fill="black"/>
<path d="M18.7495 12C17.5086 12 16.4995 10.991 16.4995 9.75C16.4995 8.50901 17.5085 7.5 18.7495 7.5C19.9905 7.5 20.9995 8.50901 20.9995 9.75C20.9995 10.991 19.9905 12 18.7495 12ZM18.7495 8.70486C18.1742 8.70486 17.7043 9.17473 17.7043 9.75006C17.7043 10.3254 18.1742 10.7952 18.7495 10.7952C19.3248 10.7952 19.7947 10.3254 19.7947 9.75006C19.7947 9.17473 19.3248 8.70486 18.7495 8.70486Z" fill="black"/>
<path d="M20.0567 21.7501C18.4508 19.686 16.0616 18.4992 13.5001 18.4992C10.9387 18.4992 8.54935 19.6828 6.94356 21.7501L6 20.9694C7.83574 18.6055 10.5697 17.2501 13.5 17.2501C16.4276 17.2501 19.1618 18.6054 21 20.9694L20.0567 21.7501Z" fill="black"/>
<path d="M12.75 12.75H14.25V15H12.75V12.75Z" fill="black"/>
</svg>
